<svg width="113" height="26" viewBox="0 0 113 26" fill="none" xmlns="http://www.w3.org/2000/svg">
<path d="M1.43231 25.9355L2.9512 18.6476H0L0 16.099H3.47443L4.76746 9.88808H0L0 7.33953H5.2907L6.80959 0L9.42953 0L7.91064 7.33953H13.4103L14.9291 0L17.566 0L16.0471 7.33953H19.068V9.88808H15.5239L14.2139 16.099H19.068V18.6476H13.6888L12.1699 25.9355H9.55187L11.0538 18.6476H5.56926L4.05037 25.9355H1.43231ZM6.09437 16.099H11.5771L12.887 9.88808H7.38552L6.09437 16.099Z" fill="#fff"></path>
<path d="M21.3457 13.2455C21.3457 5.71235 27.0317 0.491699 33.8977 0.491699C40.2631 0.491699 43.8749 4.13565 45.1623 7.84967L41.5147 9.28622C40.2989 6.06273 38.0459 3.75023 33.8262 3.75023C29.4276 3.75023 25.1721 6.97372 25.1721 13.2105C25.1721 19.3071 28.6766 22.8109 33.6831 22.8109C38.5108 22.8109 41.1929 19.5874 41.4074 16.6442H32.7534V13.4207H45.0908V25.5088H41.622C41.622 23.6167 42.3372 21.6546 43.0167 20.2881H41.3359C40.6565 22.1101 38.5108 25.9993 32.6461 25.9993C26.0304 26.0012 21.3457 21.094 21.3457 13.2455Z" fill="#fff"></path>
<path d="M50.9912 0.980957H69.1934V4.20445H54.5673V11.9829H66.0822V15.1713H54.5673V25.5075H50.9912V0.980957Z" fill="#fff"></path>
<path d="M72.197 21.6546C79.1703 17.4501 84.9278 13.3857 84.9278 8.48035C84.9278 5.2919 82.8894 3.64511 80.3862 3.64511C77.6684 3.64511 75.5943 5.5722 75.5943 9.04096L71.9824 8.55043C72.0182 3.89038 75.2009 0.491699 80.4219 0.491699C85.6072 0.491699 88.6827 3.71519 88.6827 8.09493C88.6827 10.7228 87.7529 12.9652 86.0721 14.9273C83.9265 17.3449 80.1001 19.7976 75.1294 22.5306L76.0234 23.862C77.3108 22.9861 78.7054 22.2853 81.3517 22.2853H88.9688V25.5088H72.197V21.6546Z" fill="#fff"></path>
<path d="M92.9736 13.1754C92.9736 4.76633 97.5152 0.491699 103.022 0.491699C108.494 0.491699 113 4.76633 113 13.1754C113 21.5495 108.959 25.9993 103.022 25.9993C97.0504 26.0012 92.9736 21.5495 92.9736 13.1754ZM109.245 13.1754C109.245 7.28906 106.777 3.61008 103.022 3.61008C99.196 3.61008 96.7285 7.28906 96.7285 13.1754C96.7285 19.4823 99.1245 22.8809 103.022 22.8809C106.849 22.8828 109.245 19.5173 109.245 13.1754Z" fill="#fff"></path>
</svg>