<svg version="1.1" id="Layer_1" xmlns="http://www.w3.org/2000/svg" xmlns:xlink="http://www.w3.org/1999/xlink" x="0px" y="0px" viewBox="0 0 476.5 100.2" style="enable-background:new 0 0 476.5 100.2;" xml:space="preserve">
		<path class="st0" d="M0,63c0-22.4,15.4-37.1,36.8-37.1S73.6,40.6,73.6,63c0,22.8-15.4,37.2-36.8,37.2S0,84.6,0,63z M52.9,63.3
			c0-14.4-6.6-21.7-16.1-21.7s-16.1,7.3-16.1,21.7s6.6,21.1,16.1,21.1S52.9,77.7,52.9,63.3z"></path>
		<path class="st0" d="M88.2,28h17.9c-0.1,4.6-3.1,10.6-6.9,16.1h8.7c3.2-9.9,10.2-18.2,21.4-18.2c15.4,0,23.8,10.2,23.8,25.8V98
			h-19.9V55.4c0-9.2-4.3-13.2-11.2-13.2c-13.9,0-14,15.1-14,22.5V98H88.2V28z"></path>
		<path class="st0" d="M178.9,79.7V43.1h-14.7V28h14.7V6h19.9v22H217v15.1h-18.2V76c0,4.2,1.8,6.2,6.2,6.2h15.1V98h-23.4
			C185.4,98,178.9,90.6,178.9,79.7z"></path>
		<path class="st0" d="M227.5,63c0-22.1,11.8-37.1,28.8-37.1c14.4,0,20.2,9.4,23.2,16.5h8.4c-3.5-5.5-7.4-12-7.4-28.7V0h19.9v98
			h-18.1c0-4.9,3.2-10.2,6-14.3H280c-3.5,7-8.8,16.5-23.7,16.5C239.3,100.2,227.5,85.1,227.5,63z M281.4,63
			c0-14.8-6.7-22.1-16.7-22.1c-9.2,0-16.4,5.7-16.4,22.1s7.1,22.1,16.4,22.1C274.5,85.1,281.4,77.8,281.4,63z"></path>
		<path class="st0" d="M315.1,62.9c0-22,15.1-37,35.4-37c23.5,0,35.8,18.5,33.9,41.9H335c0.6,12.3,7.1,17.4,15.7,17.4
			c9,0,13.3-5.6,16.2-12.2l17.8,6.9c-3.9,9-12.7,20.4-34,20.4C329.1,100.2,315.1,85.8,315.1,62.9z M364.8,53.8
			c-0.8-8.7-5.8-13.6-14.3-13.6c-8,0-13.4,4.8-14.8,13.6H364.8z"></path>
		<path class="st0" d="M429.6,69l-10.2,9.8V98h-19.9V0h19.9v30.9c0,14-3.8,19.2-10.1,24.4l5.3,5.7l32.9-33h24.4l-28.6,27.7L476.5,98
			h-25.1L429.6,69z"></path>
</svg>