<!-- Generated by IcoMoon.io -->
<svg version="1.1" xmlns="http://www.w3.org/2000/svg" width="32" height="32" viewBox="0 0 32 32">
<title>pinterest</title>
<path d="M8.625 13.486c0 1.396 0.614 3.464 2.234 3.911 0.057 0 0.112 0.057 0.224 0.057 0.392 0 0.615-1.006 0.615-1.286 0-0.335-0.895-1.062-0.895-2.402 0-2.906 2.347-4.917 5.42-4.917 2.627 0 4.582 1.397 4.582 3.911 0 1.9-0.838 5.475-3.464 5.475-0.95 0-1.788-0.67-1.788-1.563 0-1.341 1.006-2.682 1.006-4.079 0-0.838-0.503-1.564-1.509-1.564-1.341 0-2.124 1.396-2.124 2.458 0 0.614 0.057 1.285 0.392 1.844-0.559 2.124-1.62 5.308-1.62 7.487 0 0.671 0.111 1.341 0.167 2.012v0.112l0.168-0.056c1.956-2.459 1.844-2.962 2.738-6.203 0.447 0.838 1.676 1.285 2.682 1.285 4.079 0 5.923-3.688 5.923-7.040 0-3.52-3.297-5.867-6.929-5.867-3.911-0.001-7.822 2.458-7.822 6.425z"></path>
</svg>
