<!-- Generated by IcoMoon.io -->
<svg version="1.1" xmlns="http://www.w3.org/2000/svg" width="32" height="32" viewBox="0 0 32 32">
<title>twitter</title>
<path d="M12.973 24c7.17 0 11.093-5.77 11.093-10.773 0-0.164-0.003-0.328-0.013-0.49 0.765-0.54 1.411-1.19 1.93-1.935l0.017-0.025c-0.653 0.288-1.41 0.498-2.202 0.591l-0.038 0.004c0.801-0.468 1.407-1.197 1.706-2.068l0.008-0.027c-0.714 0.419-1.544 0.739-2.427 0.912l-0.050 0.008c-1.473-1.526-3.942-1.603-5.512-0.172-0.755 0.684-1.228 1.668-1.232 2.761v0.001c0 0.29 0.035 0.58 0.103 0.863-3.134-0.153-6.055-1.59-8.036-3.956-1.032 1.73-0.504 3.942 1.208 5.054-0.65-0.019-1.255-0.192-1.787-0.483l0.021 0.010v0.048c0 1.802 1.307 3.355 3.125 3.712-0.308 0.085-0.662 0.133-1.027 0.133-0.259 0-0.513-0.025-0.758-0.071l0.025 0.004c0.512 1.541 1.975 2.598 3.642 2.63-1.321 1.011-2.996 1.62-4.814 1.62-0.009 0-0.018 0-0.027-0h0.001c-0.31 0-0.62-0.017-0.929-0.053 1.69 1.068 3.747 1.702 5.953 1.702 0.007 0 0.014 0 0.022-0h-0.001"></path>
</svg>
