<!-- Generated by IcoMoon.io -->
<svg version="1.1" xmlns="http://www.w3.org/2000/svg" width="32" height="32" viewBox="0 0 32 32">
<title>balloon</title>
<path d="M13.528 26.080c-4.368-1.762-8.028-7.854-8.028-13.52 0-6.322 4.805-11.060 10.5-11.060s10.5 4.738 10.5 11.060c0 5.667-3.66 11.759-8.028 13.52l1.667 1.944c0.834 0.973 0.143 2.476-1.139 2.476h-6c-1.282 0-1.973-1.503-1.139-2.476l1.667-1.945zM16 23.581c3.435 0 7.5-5.785 7.5-11.022 0-4.656-3.453-8.060-7.5-8.060s-7.5 3.404-7.5 8.060c0 5.237 4.065 11.022 7.5 11.022zM22.328 11.317c0.021 0.093 0.032 0.2 0.032 0.31 0 0.828-0.672 1.5-1.5 1.5-0.731 0-1.34-0.523-1.473-1.215l-0.002-0.009c-0.28-1.403-1.056-2.482-2.063-3.018-0.49-0.254-0.819-0.757-0.819-1.336 0-0.828 0.672-1.5 1.5-1.5 0.267 0 0.518 0.070 0.735 0.192l-0.008-0.004c1.817 0.966 3.144 2.81 3.596 5.080z"></path>
</svg>
