<!-- Generated by IcoMoon.io -->
<svg version="1.1" xmlns="http://www.w3.org/2000/svg" width="32" height="32" viewBox="0 0 32 32">
<title>category</title>
<path d="M4.749 5.066l-0.597 7.758c-0.033 0.431 0.124 0.856 0.43 1.162l13.114 13.114c0.268 0.268 0.639 0.434 1.049 0.434s0.78-0.166 1.049-0.434l6.99-6.99c0.268-0.268 0.434-0.639 0.434-1.048s-0.166-0.78-0.434-1.048v0l-13.115-13.114c-0.268-0.268-0.639-0.434-1.049-0.434-0.040 0-0.079 0.002-0.119 0.005l0.005-0-7.757 0.596zM15.765 2.803l13.115 13.114c0.805 0.805 1.303 1.917 1.303 3.145s-0.498 2.34-1.303 3.145l-6.989 6.99c-0.805 0.805-1.917 1.303-3.145 1.303s-2.34-0.498-3.145-1.303l-13.117-13.114c-0.805-0.805-1.303-1.917-1.303-3.146 0-0.12 0.005-0.239 0.014-0.357l-0.001 0.016 0.695-9.024c0.058-0.729 0.635-1.307 1.359-1.365l0.005-0 9.025-0.694c0.102-0.008 0.221-0.013 0.341-0.013 1.228 0 2.341 0.498 3.145 1.303v0zM7.212 13.82c-0.827-0.808-1.339-1.935-1.339-3.181 0-2.457 1.991-4.448 4.448-4.448 1.246 0 2.373 0.513 3.181 1.339l0.001 0.001c0.783 0.801 1.267 1.898 1.267 3.109 0 2.457-1.991 4.448-4.448 4.448-1.21 0-2.307-0.483-3.109-1.267l0.001 0.001zM9.309 11.724c0.27 0.279 0.648 0.452 1.066 0.452 0.819 0 1.483-0.664 1.483-1.483 0-0.418-0.173-0.796-0.451-1.065l-0-0c-0.267-0.258-0.63-0.417-1.031-0.417-0.819 0-1.483 0.664-1.483 1.483 0 0.401 0.159 0.765 0.418 1.032l-0-0z"></path>
</svg>
