<!-- Generated by IcoMoon.io -->
<svg version="1.1" xmlns="http://www.w3.org/2000/svg" width="32" height="32" viewBox="0 0 32 32">
<title>clock</title>
<path d="M20.56 18.44c0.294 0.275 0.477 0.665 0.477 1.097 0 0.828-0.672 1.5-1.5 1.5-0.433 0-0.823-0.183-1.097-0.477l-0.001-0.001-3.499-3.497c-0.137-0.137-0.248-0.301-0.324-0.483l-0.004-0.010-0.006-0.023c-0.067-0.162-0.106-0.35-0.107-0.547v-7c0-0.828 0.672-1.5 1.5-1.5s1.5 0.672 1.5 1.5v6.379l3.060 3.060zM16 27c-6.067 0-11-4.934-11-11s4.933-11 11-11 11 4.934 11 11-4.934 11-11 11zM16 2c-7.733 0-14 6.268-14 14 0 7.733 6.268 14 14 14 7.733 0 14-6.267 14-14 0-7.732-6.267-14-14-14z"></path>
</svg>
