<!-- Generated by IcoMoon.io -->
<svg version="1.1" xmlns="http://www.w3.org/2000/svg" width="32" height="32" viewBox="0 0 32 32">
<title>cross</title>
<path d="M18.121 16l6.44-6.439c0.272-0.272 0.439-0.647 0.439-1.061 0-0.829-0.672-1.5-1.5-1.5-0.414 0-0.789 0.168-1.061 0.439l-6.439 6.44-6.44-6.44c-0.267-0.246-0.624-0.397-1.017-0.397-0.829 0-1.501 0.672-1.501 1.501 0 0.393 0.151 0.751 0.399 1.019l-0.001-0.001 6.44 6.439-6.44 6.439c-0.261 0.27-0.422 0.637-0.422 1.043 0 0.828 0.672 1.5 1.5 1.5 0.405 0 0.772-0.16 1.042-0.421l-0 0 6.44-6.44 6.44 6.44c0.292 0.293 0.676 0.439 1.060 0.439s0.767-0.146 1.060-0.439c0.272-0.271 0.44-0.647 0.44-1.061s-0.168-0.79-0.44-1.061l-6.439-6.439z"></path>
</svg>
