<!-- Generated by IcoMoon.io -->
<svg version="1.1" xmlns="http://www.w3.org/2000/svg" width="32" height="32" viewBox="0 0 32 32">
<title>external-link</title>
<path d="M21.061 9.44c-0.274-0.289-0.661-0.47-1.090-0.47-0.828 0-1.5 0.672-1.5 1.5 0 0.429 0.18 0.816 0.468 1.089l0.001 0.001 3.439 3.44h-13.379c-3.308 0-6 2.692-6 6s2.692 6 6 6h2.5c0.828 0 1.5-0.672 1.5-1.5s-0.672-1.5-1.5-1.5h-2.5c-1.654 0-3-1.346-3-3s1.346-3 3-3h13.379l-3.439 3.44c-0.289 0.274-0.469 0.661-0.469 1.090 0 0.828 0.672 1.5 1.5 1.5 0.429 0 0.816-0.18 1.089-0.469l0.001-0.001 7.061-7.060-7.061-7.060z"></path>
</svg>
