<!-- Generated by IcoMoon.io -->
<svg version="1.1" xmlns="http://www.w3.org/2000/svg" width="32" height="32" viewBox="0 0 32 32">
<title>favicon</title>
<path d="M29.872 32h-27.744c-1.168 0-2.128-1.346-2.128-3v-25.99c0-1.652 0.96-3.010 2.128-3.010h27.744c1.168 0 2.128 1.357 2.128 3.010v25.99c0 1.654-0.96 3-2.128 3zM17.532 7.113c1.945-0.343 3.438-0.763 4.543-1.428l-1.648-3.125c-1.752 1.437-3.47 2.711-7.193 3.274-4.042 0.713-6.467 3.49-5.84 7.046 0.365 2.066 1.467 3.344 3.666 4.085-1.026 0.933-1.557 2.186-1.354 3.34 0.3 1.702 1.955 2.915 5.328 2.32l2.371-0.418c1.702-0.3 2.64 0.223 2.833 1.317 0.204 1.155-0.441 2.115-3.42 2.64-3.069 0.541-3.856-0.010-4.124-1.529l-3.859 0.68c0.568 3.222 2.516 4.852 8.412 3.813 5.379-0.948 7.856-3.422 7.283-6.674-0.471-2.674-3.154-4.206-6.8-3.563l-2.463 0.434c-1.58 0.278-1.944-0.19-2.040-0.737-0.076-0.426 0.098-0.863 0.42-1.17 0.603 0.050 1.222 0.003 1.921-0.12 4.102-0.723 6.223-3.447 5.671-6.577-0.359-2.036-1.576-3.076-3.707-3.608zM11.7 12.058c-0.311-1.762 0.493-3.064 2.135-3.353 1.793-0.316 2.834 0.44 3.172 2.355 0.348 1.975-0.381 3.169-2.113 3.474-1.64 0.29-2.867-0.622-3.194-2.476z"></path>
</svg>
