<!-- Generated by IcoMoon.io -->
<svg version="1.1" xmlns="http://www.w3.org/2000/svg" width="32" height="32" viewBox="0 0 32 32">
<title>hamburger</title>
<path d="M6.4 9.6c-0.884 0-1.6-0.716-1.6-1.6s0.716-1.6 1.6-1.6h19.2c0.884 0 1.6 0.716 1.6 1.6s-0.716 1.6-1.6 1.6h-19.2zM11.293 17.6c-0.884 0-1.6-0.716-1.6-1.6s0.716-1.6 1.6-1.6h14.307c0.884 0 1.6 0.716 1.6 1.6s-0.716 1.6-1.6 1.6h-14.307zM6.4 25.6c-0.884 0-1.6-0.716-1.6-1.6s0.716-1.6 1.6-1.6v0h19.2c0.884 0 1.6 0.716 1.6 1.6s-0.716 1.6-1.6 1.6v0h-19.2z"></path>
</svg>
