<!-- Generated by IcoMoon.io -->
<svg version="1.1" xmlns="http://www.w3.org/2000/svg" width="32" height="32" viewBox="0 0 32 32">
<title>marker</title>
<path d="M16.5 10.568c-2.209 0-4 1.791-4 4s1.791 4 4 4v0c2.209 0 4-1.791 4-4s-1.791-4-4-4v0M16.5 13.568c0.551 0 1 0.45 1 1s-0.449 1-1 1-1-0.449-1-1c0-0.55 0.449-1 1-1M16.5 3c-6.351 0-11.5 5.15-11.5 11.5 0 8.363 11.5 14.636 11.5 14.636s11.5-6.273 11.5-14.636c0-6.35-5.149-11.5-11.5-11.5M16.5 6c4.687 0 8.5 3.813 8.5 8.5 0 4.592-5.253 9.003-8.5 11.131-3.249-2.13-8.5-6.54-8.5-11.13 0-4.689 3.813-8.501 8.5-8.501"></path>
</svg>
