<!-- Generated by IcoMoon.io -->
<svg version="1.1" xmlns="http://www.w3.org/2000/svg" width="32" height="32" viewBox="0 0 32 32">
<title>phone</title>
<path d="M31.090 22.61l-7-3c-0.17-0.075-0.369-0.118-0.577-0.118-0.133 0-0.261 0.018-0.383 0.050l0.010-0.002c-0.326 0.074-0.602 0.252-0.798 0.497l-0.002 0.003-3.1 3.79c-4.886-2.339-8.737-6.187-11.020-10.931l-0.060-0.139 3.84-3.1c0.246-0.206 0.425-0.483 0.508-0.799l0.002-0.011c0.028-0.106 0.044-0.228 0.044-0.354 0-0.212-0.046-0.414-0.127-0.595l0.004 0.009-3-7c-0.22-0.565-0.76-0.959-1.392-0.959-0.134 0-0.265 0.018-0.388 0.051l0.010-0.002-6.5 1.5c-0.34 0.077-0.628 0.266-0.828 0.527l-0.003 0.003c-0.206 0.246-0.331 0.566-0.331 0.915 0 0.019 0 0.039 0.001 0.058l-0-0.003c0 16.016 12.984 29 29 29v0c0.705-0.008 1.294-0.495 1.458-1.15l0.002-0.010 1.5-6.5c0.024-0.1 0.038-0.215 0.038-0.333 0-0.243-0.058-0.473-0.162-0.676l0.004 0.008c-0.159-0.325-0.42-0.58-0.741-0.726l-0.009-0.004z"></path>
</svg>
