<!-- Generated by IcoMoon.io -->
<svg version="1.1" xmlns="http://www.w3.org/2000/svg" width="32" height="32" viewBox="0 0 32 32">
<title>search</title>
<path d="M19.371 17.952l1.997 1.997c0.272-0.11 0.587-0.174 0.917-0.174 0.693 0 1.321 0.281 1.776 0.736l3.704 3.704c0.454 0.454 0.735 1.082 0.735 1.775 0 1.386-1.124 2.51-2.51 2.51-0.693 0-1.321-0.281-1.775-0.735v0l-3.705-3.705c-0.455-0.454-0.736-1.082-0.736-1.776 0-0.33 0.064-0.645 0.179-0.933l-0.006 0.017-2.053-2.053c-1.474 1.098-3.332 1.758-5.343 1.758-0.005 0-0.010 0-0.015 0h0.001c-4.991 0-9.037-4.046-9.037-9.037s4.046-9.037 9.037-9.037v0c0 0 0 0 0.001 0 4.991 0 9.037 4.046 9.037 9.037 0 2.267-0.835 4.339-2.214 5.926l0.009-0.011zM12.538 18.062c3.328 0 6.025-2.697 6.025-6.025s-2.697-6.025-6.025-6.025v0c-3.328 0-6.025 2.697-6.025 6.025s2.697 6.025 6.025 6.025v0z"></path>
</svg>
