<!-- Generated by IcoMoon.io -->
<svg version="1.1" xmlns="http://www.w3.org/2000/svg" width="32" height="32" viewBox="0 0 32 32">
<title>youtube</title>
<path d="M26.8 12.1v0c0-0.3-0.3-1.9-1.1-2.7-0.7-0.7-1.7-1.1-2.7-1.2h-0.2c-3-0.2-6.6-0.2-6.8-0.2s-3.8 0-6.8 0.2h-0.2c-1 0-1.9 0.5-2.6 1.2-0.8 0.8-1.1 2.4-1.1 2.7-0.2 1.2-0.3 2.4-0.3 3.6v1.6c0 1.2 0.1 2.4 0.2 3.6 0 0.3 0.3 1.8 1.1 2.7 0.8 0.7 1.7 1.1 2.7 1.1 0.1 0 0.2 0 0.2 0h0.1c1.7 0.2 6.4 0.2 6.6 0.2v0c0.2 0 3.8 0 6.8-0.2h0.2c1 0 1.9-0.5 2.6-1.2 0.8-0.8 1.1-2.4 1.1-2.7 0.1-1.2 0.2-2.4 0.2-3.6v-1.6c0.2-1.1 0.1-2.3 0-3.5zM13.1 19.9v-7.4l7.1 3.7-7.1 3.7z"></path>
</svg>
